<svg width="402" height="327" viewBox="0 0 402 327" fill="none" xmlns="http://www.w3.org/2000/svg">
<path d="M11.7524 234.811L395.433 231.138" stroke="black"/>
<path d="M82.9578 22.6434C76.3212 23.7495 72.012 30.1325 70.5142 33.7043C73.1642 33.6933 79.4321 34.8104 81.9209 37.8522C84.4096 40.894 85.0318 43.4979 85.0318 44.4197C86.7601 43.0371 91.1154 40.4101 94.7102 40.9631C98.305 41.5162 101.278 44.4197 102.315 45.8023C102.776 44.9958 103.559 41.8618 103.006 35.7782C102.453 29.6947 97.245 25.639 94.7102 24.3717C93.558 23.3347 89.5945 21.5373 82.9578 22.6434Z" fill="#F6D365" stroke="#F6D365"/>
<path d="M395.433 230.384C398.325 225.482 395.997 221.742 399.108 204.459C402.219 187.176 393.704 149.154 393.359 144.661C393.082 141.066 383.796 119.658 379.187 109.403L356.028 73.8007L330.103 46.8394C321.462 40.6176 299.271 25.7543 279.637 16.0759C255.096 3.97789 198.753 0.175655 187.692 0.521313C176.631 0.86697 147.596 7.78013 140.683 10.1997C135.152 12.1354 114.643 21.8369 105.08 26.4456L74.3167 49.2591C63.9469 57.094 38.23 81.1287 21.0854 118.736C3.94075 156.344 7.25906 211.098 11.0613 233.774L395.433 230.384Z" fill="#FFE1D8" stroke="#F7F7F7"/>
<path d="M402 229.692L395.433 229.755L11.7524 233.428L4.83921 233.495L0 287.417L392.667 326.131L402 229.692Z" fill="#DE2500" stroke="white"/>
<path d="M52.54 61.3569V54.098C52.54 51.6093 54.1531 47.761 54.9596 46.1479C56.9184 43.1522 61.5963 36.746 64.6381 35.0869C67.6799 33.4277 73.0491 34.1651 75.3535 34.7412C76.0448 35.2021 77.9805 36.3312 80.1927 37.1608C82.4049 37.9904 83.8797 42.8066 84.3406 45.1109C85.0319 44.3044 87.3132 42.4839 90.9081 41.6544C95.4016 40.6174 98.8582 43.037 100.586 44.074C101.969 44.9035 105.08 50.1806 106.463 52.7154C108.537 51.5632 114.067 49.6737 119.598 51.3328C125.128 52.9919 125.589 59.859 125.128 63.0851H53.2314H52.54V61.3569Z" fill="white" stroke="white"/>
<path d="M331.832 90.0466H79.5015V90.7379V105.947H331.832V90.0466Z" fill="#48424C" stroke="#4E4E4E"/>
<path d="M78.1187 90.0466V84.5161H332.868V90.0466" stroke="black"/>
<path d="M332.869 90.0466V105.947" stroke="black"/>
<path d="M332.868 106.293V109.749V111.823H316.277V149.845V242.827H312.129V148.463V105.947L98.8581 106.293V115.28V117.008L99.5494 227.273V228.31V229.347V242.827H94.7102V112.169H78.1187V106.984L79.5013 106.293H98.8581L312.129 105.947H332.523L332.868 106.293V84.5161L331.831 89.701L79.1556 90.0466L78.1187 84.5161H332.868V106.293Z" fill="black"/>
<path d="M98.8581 106.293L312.129 105.947H332.523L332.868 106.293V109.749M332.868 109.749V111.823H316.277M78.1187 105.601V84.5161H332.868V109.749M78.1187 106.293V106.984M94.7102 112.169H78.1187V106.984M94.7102 112.169V242.827H99.5494V229.347M94.7102 112.169L98.8581 106.293M99.5494 229.347V228.31M99.5494 229.347V227.273L98.8581 117.008V115.28V106.293M312.129 105.947V148.463V242.827H316.277V149.845V111.823M312.129 105.947L316.277 111.823M98.8581 106.293H79.5013M78.1187 84.5161L79.1556 90.0466L331.831 89.701L332.868 84.5161M79.5013 106.293L78.1187 106.984M79.5013 106.293V90.3923" stroke="#6A6C6C"/>
<path d="M78.1187 106.638V90.0466" stroke="#6A6C6C"/>
<path d="M173.52 221.742L172.829 115.971H99.9282L100.879 220.705L100.888 226.236H173.52V221.742Z" fill="black"/>
<path d="M100.888 221.742L100.879 220.705M100.879 220.705L99.9282 115.971H172.829L173.52 221.742V226.236H100.888L100.879 220.705Z" stroke="black"/>
<path d="M167.644 120.81V131.061L168.335 220.845L168.336 221.742H167.99H118.178L103.697 221.742V220.895V220.36V119.963L167.644 120.81Z" fill="#6D6670"/>
<path d="M168.335 220.932L168.335 220.845M168.335 220.845L168.336 221.742H167.99H118.178L103.697 221.742V220.36M103.697 220.36V119.963L167.644 120.81V131.061L168.335 220.845M103.697 220.36V220.895M118.178 221.742L127.893 221.742" stroke="#595959"/>
<path d="M140.683 56.5179C137.641 57.0709 133.885 60.8962 132.387 62.7397H151.052C148.863 60.4353 143.724 55.9648 140.683 56.5179Z" fill="white" stroke="white"/>
<path d="M290.007 37.1609C281.158 42.4149 279.407 56.4025 279.637 62.7395H352.571V62.0484C352.571 60.9422 350.267 56.7483 349.115 54.7895C347.847 53.1765 344.345 49.9503 340.473 49.9503C336.602 49.9503 334.021 51.7938 333.214 52.7156L331.486 48.9134C330.103 45.8024 323.19 42.3459 319.388 42.3459C316.346 42.3459 313.051 44.6502 311.784 45.8024L310.747 44.074C307.52 39.5805 298.856 31.9069 290.007 37.1609Z" fill="white" stroke="white"/>
<path d="M111.302 149.5V125.304H117.178L129.622 142.241L123.745 149.5H111.302Z" fill="#00C46A" stroke="#00C46A"/>
<path d="M133.424 142.241L119.597 125.304L118.906 124.612H122.017L135.843 141.204H148.287V144.315H135.843L116.141 166.437V198.929H114.413V164.363L133.424 142.241Z" fill="#69839A" stroke="#69839A"/>
<path d="M132.733 132.563L126.165 125.304H139.646V130.834L132.733 132.563Z" fill="#8F8A90" stroke="#595959"/>
<path d="M141.72 124.612V132.562L137.751 133.224L137.226 133.254V138.439L145.868 138.093V124.612H141.72Z" fill="#8F8A90"/>
<path d="M137.572 133.254L137.751 133.224M137.751 133.224L141.72 132.562V124.612H145.868V138.093L137.226 138.439V133.254L137.751 133.224Z" stroke="#595959"/>
<path d="M152.781 140.167V124.612H161.077V140.167H152.781Z" fill="#00C46A" stroke="#00C46A"/>
<path d="M136.88 164.709L123.4 172.313H119.597H118.906H118.215V166.783L127.202 156.413H136.88V164.709Z" fill="#8F8A90"/>
<path d="M118.906 172.313H119.597M119.597 172.313H123.4L136.88 164.709V156.413H127.202L118.215 166.783V172.313H119.597Z" stroke="#595959"/>
<path d="M122.708 175.078H118.215V181.646H122.708V175.078Z" fill="#8F8A90" stroke="#595959"/>
<path d="M122.363 183.374H118.215V189.596H122.363V183.374Z" fill="#8F8A90" stroke="#595959"/>
<path d="M122.708 192.361H118.215V198.583H122.708V192.361Z" fill="#8F8A90" stroke="#595959"/>
<path d="M124.782 173.004V197.892H127.547V175.078L143.102 167.128V163.672L124.782 173.004Z" fill="#FF4D1C" stroke="#FF4D1C"/>
<path d="M117.869 157.45L111.647 163.326V157.45H117.869Z" fill="#00C46A" stroke="#00C46A"/>
<path d="M148.978 155.376H111.302V152.265H147.25V124.612H150.707V155.376H148.978Z" fill="#FF4D1C" stroke="#DE2500" stroke-opacity="0.1"/>
<path d="M145.868 150.537H134.115L136.88 147.08H140.337V145.352H145.868V150.537Z" fill="#8F8A90" stroke="#595959"/>
<path d="M130.658 239.716L128.584 233.495V211.027V199.62V185.448L160.731 149.845H334.251C334.942 150.191 336.394 151.435 336.67 153.648C336.947 155.86 336.786 200.657 336.67 222.779L338.744 224.853V236.26L333.905 240.408L330.449 240.062C331.601 236.26 333.006 227.895 329.412 224.853C327.799 222.203 323.19 216.903 317.659 216.903C310.746 216.903 302.796 216.557 299.685 219.668C296.574 222.779 293.118 226.581 292.772 232.458C292.627 234.925 292.602 236.739 292.628 237.988C292.652 239.119 292.717 239.788 292.772 240.062H194.951C195.068 239.448 195.182 238.748 195.282 237.988C195.977 232.757 196.049 224.711 192.186 222.779C190.688 220.936 187.07 217.249 184.581 217.249C181.47 217.249 168.681 214.483 162.113 219.668C156.859 223.816 156.468 234.992 156.928 240.062L151.052 239.985L130.658 239.716Z" fill="white"/>
<path d="M151.052 239.985L156.928 240.062C156.468 234.992 156.859 223.816 162.113 219.668C168.681 214.483 181.47 217.249 184.581 217.249C187.07 217.249 190.688 220.936 192.186 222.779C196.049 224.711 195.977 232.757 195.282 237.988C195.182 238.748 195.068 239.448 194.951 240.062H292.772C292.717 239.788 292.652 239.119 292.628 237.988M195.282 237.988H201.173M292.628 237.988C292.602 236.739 292.627 234.925 292.772 232.458C293.118 226.581 296.574 222.779 299.685 219.668C302.796 216.557 310.746 216.903 317.659 216.903C323.19 216.903 327.799 222.203 329.412 224.853C333.006 227.895 331.601 236.26 330.449 240.062L333.905 240.408L338.744 236.26V224.853L336.67 222.779C336.786 200.657 336.947 155.86 336.67 153.648C336.394 151.435 334.942 150.191 334.251 149.845H160.731L128.584 185.448V199.62V211.027M292.628 237.988H201.173M201.173 237.988C201.518 233.149 200.689 222.572 194.605 218.977C187.001 214.483 179.051 211.027 171.446 212.41C166.261 213.907 155.131 218.908 152.089 226.927C149.047 234.946 150.13 238.974 151.052 239.985M151.052 239.985L130.658 239.716L128.584 233.495V211.027" stroke="black"/>
<path d="M133.424 199.62H129.276V211.027H133.424V199.62Z" fill="black" stroke="black"/>
<path d="M133.424 238.68V188.213L167.298 149.845L164.533 153.648H178.705H209.123M337.016 153.648H209.123M209.123 153.648V196.164L206.703 202.04L209.123 205.842V233.149L210.851 235.223V239.716" stroke="black"/>
<path d="M151.744 203.077H337.016" stroke="black"/>
<path d="M283.785 189.596V197.546L282.402 202.04L283.785 206.188V231.766L286.55 235.569V239.717" stroke="black"/>
<path d="M198.753 228.31L206.358 219.668H295.883" stroke="black"/>
<path d="M288.624 237.297C288.97 232.342 291.182 221.673 297.265 218.631L303.833 214.829C306.483 214.368 312.405 213.516 314.894 213.792C318.005 214.138 323.881 214.829 329.412 222.088C333.836 227.895 335.173 235.799 335.288 239.025" stroke="black"/>
<path d="M203.593 218.286H198.753V206.533H203.593V218.286Z" fill="black" stroke="black"/>
<path d="M199.099 197.546H191.149V194.435H199.099V197.546Z" fill="#595959" stroke="#595959"/>
<path d="M214.999 191.67V199.274H218.11V191.67H214.999Z" fill="#595959" stroke="#595959"/>
<path d="M198.062 189.596H139.646L138.609 188.559C138.609 187.453 139.3 186.024 139.646 185.448L167.298 155.722H198.408C199.514 155.722 200.712 158.026 201.173 159.178V187.177C201.173 188.559 199.099 189.366 198.062 189.596Z" fill="black" stroke="black"/>
<path d="M217.765 189.596C215.276 189.32 214.078 187.868 213.962 187.177L214.306 159.34L214.308 158.487C214.308 156.828 214.999 156.183 215.345 156.067C252.907 155.952 328.513 155.791 330.449 156.067C332.385 156.344 332.523 157.335 332.523 157.796V187.868C332.523 189.527 330.68 189.712 329.758 189.596C293.464 189.712 220.253 189.873 217.765 189.596Z" fill="black"/>
<path d="M214.308 159.178L214.306 159.34M214.306 159.34L213.962 187.177C214.078 187.868 215.276 189.32 217.765 189.596C220.253 189.873 293.464 189.712 329.758 189.596C330.68 189.712 332.523 189.527 332.523 187.868C332.523 186.209 332.523 167.129 332.523 157.796C332.523 157.335 332.385 156.344 330.449 156.067C328.513 155.791 252.907 155.952 215.345 156.067C214.999 156.183 214.308 156.828 214.308 158.487L214.306 159.34Z" stroke="black"/>
<path d="M162.805 254.234C158.657 252.575 157.62 243.634 156.929 240.754C156.929 237.297 157.482 229.209 159.694 224.508C161.906 219.807 168.681 217.479 171.101 217.249C173.405 217.364 179.12 217.594 183.544 217.594C189.075 217.594 191.84 225.545 193.568 226.582C194.951 227.411 195.527 235.453 195.642 239.371C195.758 240.062 195.919 242.067 195.642 244.556C195.366 247.044 191.149 250.893 189.075 252.506C186.863 255.548 178.705 257.23 174.903 257.691C173.059 257.115 166.953 255.893 162.805 254.234Z" fill="#242424" stroke="black"/>
<path d="M299.34 252.851C294.362 250.363 292.792 243.058 292.629 239.716H293.118C293.233 237.182 293.602 231.766 294.155 230.384C294.846 228.655 298.649 221.742 302.451 219.323C306.253 216.903 314.894 217.594 319.042 217.249C323.19 216.903 325.61 223.125 329.066 225.89C331.832 228.102 331.14 235.108 330.449 238.334C330.564 239.716 330.656 243.242 330.103 246.284C329.55 249.326 325.956 252.621 324.227 253.888C322.499 254.925 317.591 257.207 311.784 258.036C305.976 258.866 301.068 254.925 299.34 252.851Z" fill="#242424" stroke="black"/>
<path d="M144.139 156.413V161.598L140.17 163.913L139.646 164.017V156.413H144.139Z" fill="#00C46A"/>
<path d="M139.991 164.017L140.17 163.913M140.17 163.913L144.139 161.598V156.413H139.646V164.017L140.17 163.913Z" stroke="#00C46A"/>
<path d="M145.176 159.178C141.858 162.496 142.181 167.013 142.757 168.857L151.053 159.869L150.361 154.685C150.016 154.8 148.495 155.86 145.176 159.178Z" fill="#FFE1D8" stroke="#FFE1D8"/>
<path d="M151.693 159.538C151.724 159.239 151.744 158.792 151.744 158.141C151.744 155.929 151.513 154.685 151.398 154.339L150.015 154.339C149.9 152.15 149.739 147.495 150.015 146.389C150.046 146.266 150.072 146.161 150.092 146.074L150.015 146.043C150.118 145.736 150.257 145.374 150.092 146.074L151.744 146.734L154.509 147.426L155.2 149.5L156.929 150.537L156.583 152.265L156.929 153.648L151.693 159.538C151.618 160.254 151.479 160.113 151.398 159.869L151.693 159.538Z" fill="#B7664F"/>
<path d="M151.398 154.339C151.513 154.685 151.744 155.929 151.744 158.141C151.744 160.353 151.513 160.215 151.398 159.869L156.929 153.648L156.583 152.265L156.929 150.537L155.2 149.5L154.509 147.426L151.744 146.734L150.015 146.043C150.131 145.697 150.292 145.283 150.015 146.389C149.739 147.495 149.9 152.15 150.015 154.339L151.398 154.339Z" stroke="#595959"/>
<path d="M156.237 152.265L155.2 153.648L153.472 154.685L151.398 154.339L151.052 153.993V153.302" stroke="#595959"/>
<path d="M157.966 150.537L157.62 153.302H157.274V150.537L155.546 149.154L154.855 147.08L153.472 146.734L150.016 145.697V142.587C150.016 141.895 154.509 141.895 155.892 141.895C156.998 141.895 157.505 142.356 157.62 142.587C157.966 143.047 158.864 144.315 159.694 145.697C160.524 147.08 159.579 148.348 159.003 148.808L157.966 150.537Z" fill="#070606" stroke="black"/>
<g filter="url(#filter0_dd_178_2505)">
<circle cx="311.783" cy="237.297" r="13.8263" fill="#F2F2F2"/>
<circle cx="311.783" cy="237.297" r="13.3263" stroke="url(#paint0_linear_178_2505)"/>
</g>
<g filter="url(#filter1_dd_178_2505)">
<circle cx="176.285" cy="238.68" r="13.8263" fill="#F2F2F2"/>
<circle cx="176.285" cy="238.68" r="13.3263" stroke="url(#paint1_linear_178_2505)"/>
</g>
<rect x="223" y="206.5" width="10" height="10" rx="5" fill="#FF4D1C"/>
<g filter="url(#filter2_i_178_2505)">
<path d="M227.875 214.566C227.562 214.566 227.375 214.375 227.375 214.043V209.715H226.086C225.812 209.715 225.625 209.551 225.625 209.289C225.625 209.027 225.809 208.863 226.086 208.863H229.668C229.945 208.863 230.129 209.027 230.129 209.289C230.129 209.551 229.941 209.715 229.668 209.715H228.379V214.043C228.379 214.375 228.191 214.566 227.875 214.566Z" fill="white"/>
</g>
<g filter="url(#filter3_di_178_2505)">
<path d="M240.562 215.6C240.094 215.6 239.812 215.312 239.812 214.814V208.322H237.879C237.469 208.322 237.188 208.076 237.188 207.684C237.188 207.291 237.463 207.045 237.879 207.045H243.252C243.668 207.045 243.943 207.291 243.943 207.684C243.943 208.076 243.662 208.322 243.252 208.322H241.318V214.814C241.318 215.312 241.037 215.6 240.562 215.6ZM244.965 215.617C244.525 215.617 244.238 215.33 244.238 214.85V209.904C244.238 209.447 244.52 209.166 244.936 209.166C245.34 209.166 245.627 209.447 245.627 209.904V210.379H245.656C245.826 209.652 246.365 209.184 246.986 209.184C247.215 209.184 247.391 209.242 247.502 209.342C247.637 209.453 247.707 209.629 247.707 209.869C247.707 210.098 247.637 210.268 247.49 210.385C247.35 210.508 247.133 210.572 246.846 210.578C246.014 210.584 245.697 211.105 245.697 211.861V214.85C245.697 215.33 245.404 215.617 244.965 215.617ZM251.377 215.623C249.555 215.623 248.371 214.41 248.371 212.395C248.371 210.391 249.566 209.16 251.377 209.16C253.188 209.16 254.383 210.385 254.383 212.395C254.383 214.41 253.199 215.623 251.377 215.623ZM251.377 214.469C252.303 214.469 252.9 213.719 252.9 212.395C252.9 211.076 252.303 210.32 251.377 210.32C250.457 210.32 249.854 211.076 249.854 212.395C249.854 213.719 250.451 214.469 251.377 214.469ZM258.217 215.623C256.904 215.623 255.984 215.119 255.686 214.375C255.645 214.27 255.627 214.176 255.627 214.088C255.627 213.736 255.885 213.514 256.236 213.514C256.477 213.514 256.682 213.625 256.869 213.871C257.197 214.346 257.572 214.557 258.27 214.557C258.949 214.557 259.4 214.27 259.4 213.801C259.4 213.426 259.166 213.221 258.527 213.074L257.52 212.846C256.307 212.57 255.709 211.973 255.709 211.07C255.709 209.916 256.705 209.16 258.24 209.16C259.436 209.16 260.361 209.746 260.555 210.461C260.572 210.537 260.584 210.607 260.584 210.678C260.584 210.982 260.391 211.199 260.021 211.199C259.811 211.199 259.6 211.123 259.465 210.93C259.178 210.502 258.82 210.232 258.205 210.232C257.566 210.232 257.127 210.543 257.127 210.988C257.127 211.352 257.396 211.598 258.041 211.744L259.031 211.961C260.344 212.26 260.865 212.734 260.865 213.654C260.865 214.844 259.799 215.623 258.217 215.623ZM263.059 215.617C262.631 215.617 262.326 215.342 262.326 214.85V207.695C262.326 207.203 262.631 206.928 263.059 206.928C263.486 206.928 263.785 207.203 263.785 207.695V211.855H263.803L266.24 209.447C266.428 209.248 266.586 209.166 266.809 209.166C267.172 209.166 267.447 209.441 267.447 209.793C267.447 210.01 267.383 210.145 267.184 210.332L265.414 212.008L267.359 214.439C267.512 214.65 267.559 214.779 267.559 214.967C267.559 215.348 267.271 215.617 266.867 215.617C266.58 215.617 266.41 215.518 266.199 215.213L264.336 212.852L263.785 213.367V214.85C263.785 215.342 263.486 215.617 263.059 215.617ZM269.77 208.416C269.318 208.416 268.961 208.064 268.961 207.625C268.961 207.18 269.318 206.834 269.77 206.834C270.227 206.834 270.584 207.18 270.584 207.625C270.584 208.064 270.227 208.416 269.77 208.416ZM269.77 215.617C269.324 215.617 269.043 215.324 269.043 214.85V209.934C269.043 209.465 269.324 209.166 269.77 209.166C270.215 209.166 270.502 209.465 270.502 209.939V214.85C270.502 215.324 270.215 215.617 269.77 215.617Z" fill="black"/>
</g>
<defs>
<filter id="filter0_dd_178_2505" x="293.957" y="217.47" width="35.6528" height="39.6526" filterUnits="userSpaceOnUse" color-interpolation-filters="sRGB">
<feFlood flood-opacity="0" result="BackgroundImageFix"/>
<feColorMatrix in="SourceAlpha" type="matrix" values="0 0 0 0 0 0 0 0 0 0 0 0 0 0 0 0 0 0 127 0" result="hardAlpha"/>
<feOffset dy="2"/>
<feGaussianBlur stdDeviation="2"/>
<feComposite in2="hardAlpha" operator="out"/>
<feColorMatrix type="matrix" values="0 0 0 0 0.94902 0 0 0 0 0.94902 0 0 0 0 0.94902 0 0 0 0.15 0"/>
<feBlend mode="normal" in2="BackgroundImageFix" result="effect1_dropShadow_178_2505"/>
<feColorMatrix in="SourceAlpha" type="matrix" values="0 0 0 0 0 0 0 0 0 0 0 0 0 0 0 0 0 0 127 0" result="hardAlpha"/>
<feOffset dy="-2"/>
<feGaussianBlur stdDeviation="2"/>
<feComposite in2="hardAlpha" operator="out"/>
<feColorMatrix type="matrix" values="0 0 0 0 0 0 0 0 0 0 0 0 0 0 0 0 0 0 0.15 0"/>
<feBlend mode="normal" in2="effect1_dropShadow_178_2505" result="effect2_dropShadow_178_2505"/>
<feBlend mode="normal" in="SourceGraphic" in2="effect2_dropShadow_178_2505" result="shape"/>
</filter>
<filter id="filter1_dd_178_2505" x="158.459" y="218.853" width="35.6528" height="39.6526" filterUnits="userSpaceOnUse" color-interpolation-filters="sRGB">
<feFlood flood-opacity="0" result="BackgroundImageFix"/>
<feColorMatrix in="SourceAlpha" type="matrix" values="0 0 0 0 0 0 0 0 0 0 0 0 0 0 0 0 0 0 127 0" result="hardAlpha"/>
<feOffset dy="2"/>
<feGaussianBlur stdDeviation="2"/>
<feComposite in2="hardAlpha" operator="out"/>
<feColorMatrix type="matrix" values="0 0 0 0 0.94902 0 0 0 0 0.94902 0 0 0 0 0.94902 0 0 0 0.15 0"/>
<feBlend mode="normal" in2="BackgroundImageFix" result="effect1_dropShadow_178_2505"/>
<feColorMatrix in="SourceAlpha" type="matrix" values="0 0 0 0 0 0 0 0 0 0 0 0 0 0 0 0 0 0 127 0" result="hardAlpha"/>
<feOffset dy="-2"/>
<feGaussianBlur stdDeviation="2"/>
<feComposite in2="hardAlpha" operator="out"/>
<feColorMatrix type="matrix" values="0 0 0 0 0 0 0 0 0 0 0 0 0 0 0 0 0 0 0.15 0"/>
<feBlend mode="normal" in2="effect1_dropShadow_178_2505" result="effect2_dropShadow_178_2505"/>
<feBlend mode="normal" in="SourceGraphic" in2="effect2_dropShadow_178_2505" result="shape"/>
</filter>
<filter id="filter2_i_178_2505" x="225.625" y="208.863" width="4.50391" height="7.70312" filterUnits="userSpaceOnUse" color-interpolation-filters="sRGB">
<feFlood flood-opacity="0" result="BackgroundImageFix"/>
<feBlend mode="normal" in="SourceGraphic" in2="BackgroundImageFix" result="shape"/>
<feColorMatrix in="SourceAlpha" type="matrix" values="0 0 0 0 0 0 0 0 0 0 0 0 0 0 0 0 0 0 127 0" result="hardAlpha"/>
<feOffset dy="2"/>
<feGaussianBlur stdDeviation="1"/>
<feComposite in2="hardAlpha" operator="arithmetic" k2="-1" k3="1"/>
<feColorMatrix type="matrix" values="0 0 0 0 0 0 0 0 0 0 0 0 0 0 0 0 0 0 0.12 0"/>
<feBlend mode="normal" in2="shape" result="effect1_innerShadow_178_2505"/>
</filter>
<filter id="filter3_di_178_2505" x="229.188" y="202.834" width="49.3965" height="24.7891" filterUnits="userSpaceOnUse" color-interpolation-filters="sRGB">
<feFlood flood-opacity="0" result="BackgroundImageFix"/>
<feColorMatrix in="SourceAlpha" type="matrix" values="0 0 0 0 0 0 0 0 0 0 0 0 0 0 0 0 0 0 127 0" result="hardAlpha"/>
<feOffset dy="4"/>
<feGaussianBlur stdDeviation="4"/>
<feComposite in2="hardAlpha" operator="out"/>
<feColorMatrix type="matrix" values="0 0 0 0 0 0 0 0 0 0 0 0 0 0 0 0 0 0 0.15 0"/>
<feBlend mode="normal" in2="BackgroundImageFix" result="effect1_dropShadow_178_2505"/>
<feBlend mode="normal" in="SourceGraphic" in2="effect1_dropShadow_178_2505" result="shape"/>
<feColorMatrix in="SourceAlpha" type="matrix" values="0 0 0 0 0 0 0 0 0 0 0 0 0 0 0 0 0 0 127 0" result="hardAlpha"/>
<feOffset dy="2"/>
<feGaussianBlur stdDeviation="1"/>
<feComposite in2="hardAlpha" operator="arithmetic" k2="-1" k3="1"/>
<feColorMatrix type="matrix" values="0 0 0 0 0.85098 0 0 0 0 0.85098 0 0 0 0 0.85098 0 0 0 0.25 0"/>
<feBlend mode="normal" in2="shape" result="effect2_innerShadow_178_2505"/>
</filter>
<linearGradient id="paint0_linear_178_2505" x1="316.623" y1="224.162" x2="305.216" y2="249.049" gradientUnits="userSpaceOnUse">
<stop stop-color="white"/>
<stop offset="0.222056" stop-color="#CCCCCC"/>
<stop offset="0.933685" stop-color="#B3B3B3"/>
<stop offset="0.989935" stop-color="#999999"/>
</linearGradient>
<linearGradient id="paint1_linear_178_2505" x1="181.125" y1="225.545" x2="169.718" y2="250.432" gradientUnits="userSpaceOnUse">
<stop stop-color="white"/>
<stop offset="0.222056" stop-color="#CCCCCC"/>
<stop offset="0.933685" stop-color="#B3B3B3"/>
<stop offset="0.989935" stop-color="#999999"/>
</linearGradient>
</defs>
</svg>
