<svg width="349" height="284" viewBox="0 0 349 284" fill="none" xmlns="http://www.w3.org/2000/svg">
<path d="M10.7061 203.65L342.542 200.473" stroke="black"/>
<path d="M72.2906 20.1513C66.5507 21.108 62.8238 26.6285 61.5283 29.7177C63.8203 29.7082 69.2413 30.6743 71.3937 33.3051C73.5462 35.9359 74.0843 38.188 74.0843 38.9852C75.5791 37.7894 79.3458 35.5174 82.4549 35.9957C85.564 36.474 88.135 38.9852 89.0319 40.181C89.4305 39.4835 90.1081 36.773 89.6298 31.5114C89.1515 26.2499 84.6473 22.7422 82.4549 21.6461C81.4584 20.7492 78.0305 19.1947 72.2906 20.1513Z" fill="#F6D365" stroke="#F6D365"/>
<path d="M162.857 0.518555C167.679 0.367884 182.283 1.11865 198.326 3.21289C214.357 5.30554 231.921 8.75061 242.615 14.0225C259.631 22.4103 278.848 35.283 286.333 40.6719L286.37 40.6982L286.401 40.7314L308.823 64.0498L308.855 64.084L308.882 64.123L328.911 94.916L328.933 94.9482L328.948 94.9834C330.943 99.4208 333.95 106.271 336.488 112.403C337.757 115.469 338.911 118.359 339.764 120.68C340.19 121.84 340.542 122.863 340.796 123.696C341.046 124.517 341.213 125.193 341.248 125.643C341.32 126.581 341.829 129.323 342.523 133.212C343.214 137.076 344.079 142.025 344.852 147.32C346.392 157.885 347.576 169.922 346.214 177.488C344.875 184.929 344.706 189.449 344.561 192.648C344.415 195.845 344.296 197.834 342.974 200.075L342.83 200.318L342.548 200.321L10.1133 203.254L9.68652 203.257L9.61523 202.836C7.96552 192.997 6.42409 176.221 7.15039 157.83C7.87651 139.444 10.8709 119.4 18.3232 103.053C33.1926 70.4361 55.4954 49.5868 64.5156 42.7715L64.5195 42.7686L91.126 23.0381L91.1641 23.0098L91.207 22.9893C99.4622 19.0109 117.234 10.603 122.051 8.91699C125.072 7.85964 132.871 5.83683 141.093 4.04297C149.309 2.25031 158.022 0.669692 162.857 0.518555Z" fill="#3B82F6" fill-opacity="0.2" stroke="#F7F7F7"/>
<path d="M292.542 184H291.542V186.5V189H292.542V184Z" fill="#F34035" stroke="#F34035"/>
<path d="M348.223 199.223L342.543 199.278L10.7064 202.455L4.72732 202.512L0.541992 249.148L340.151 282.631L348.223 199.223Z" fill="#DE2500" stroke="#F7F7F7"/>
<path d="M45.9824 53.6338V47.3559C45.9824 45.2034 47.3775 41.8751 48.0751 40.48C49.7691 37.8891 53.815 32.3485 56.4457 30.9135C59.0765 29.4786 63.7202 30.1163 65.7132 30.6146C66.3111 31.0132 67.9853 31.9897 69.8986 32.7072C71.8118 33.4247 73.0874 37.5901 73.486 39.5831C74.0839 38.8856 76.057 37.3111 79.1661 36.5936C83.0524 35.6967 86.042 37.7894 87.5367 38.6863C88.7325 39.4037 91.4231 43.9677 92.6189 46.1601C94.4126 45.1636 99.1958 43.5293 103.979 44.9642C108.762 46.3992 109.161 52.3384 108.762 55.1286H46.5803H45.9824V53.6338Z" fill="white" stroke="white"/>
<path d="M287.536 78.447H69.3008V79.0449V92.1988H287.536V78.447Z" fill="#48424C" stroke="#4E4E4E"/>
<path d="M68.1055 78.4468V73.6636H288.433V78.4468" stroke="black"/>
<path d="M288.433 78.447V92.1988" stroke="black"/>
<path d="M288.433 92.4975V95.487V97.2808H274.083V130.165V210.583H270.496V128.97V92.1986L86.0426 92.4975V100.27V101.765L86.6405 197.131V198.027V198.924V210.583H82.4552V97.5797H68.1055V93.0954L69.3013 92.4975H86.0426L270.496 92.1986H288.134L288.433 92.4975V73.6636L287.536 78.1478L69.0023 78.4468L68.1055 73.6636H288.433V92.4975Z" fill="black"/>
<path d="M86.0426 92.4975L270.496 92.1986H288.134L288.433 92.4975V95.487M288.433 95.487V97.2808H274.083M68.1055 91.8996V73.6636H288.433V95.487M68.1055 92.4975V93.0954M82.4552 97.5797H68.1055V93.0954M82.4552 97.5797V210.583H86.6405V198.924M82.4552 97.5797L86.0426 92.4975M86.6405 198.924V198.027M86.6405 198.924V197.131L86.0426 101.765V100.27V92.4975M270.496 92.1986V128.97V210.583H274.083V130.165V97.2808M270.496 92.1986L274.083 97.2808M86.0426 92.4975H69.3013M68.1055 73.6636L69.0023 78.4468L287.536 78.1478L288.433 73.6636M69.3013 92.4975L68.1055 93.0954M69.3013 92.4975V78.7458" stroke="#6A6C6C"/>
<path d="M68.1055 92.7967V78.447" stroke="#6A6C6C"/>
<path d="M150.615 192.348L150.017 100.868H86.9668L87.7889 191.451L87.797 196.234H150.615V192.348Z" fill="black"/>
<path d="M87.797 192.348L87.7889 191.451M87.7889 191.451L86.9668 100.868H150.017L150.615 192.348V196.234H87.797L87.7889 191.451Z" stroke="black"/>
<path d="M145.534 105.054V113.919L146.131 191.571L146.132 192.347H145.833H102.751L90.2275 192.347V191.615V191.152V104.321L145.534 105.054Z" fill="#6D6670"/>
<path d="M146.132 191.647L146.131 191.571M146.131 191.571L146.132 192.347H145.833H102.751L90.2275 192.347V191.152M90.2275 191.152V104.321L145.534 105.054V113.919L146.131 191.571M90.2275 191.152V191.615M102.751 192.347L111.154 192.347" stroke="#595959"/>
<path d="M122.215 49.4483C119.584 49.9266 116.335 53.235 115.04 54.8294H131.183C129.29 52.8364 124.846 48.97 122.215 49.4483Z" fill="white" stroke="white"/>
<path d="M251.363 32.7071C243.71 37.2512 242.195 49.3488 242.395 54.8295H305.473V54.2317C305.473 53.2751 303.48 49.6478 302.484 47.9538C301.388 46.5587 298.358 43.7684 295.01 43.7684C291.662 43.7684 289.43 45.3628 288.732 46.1601L287.237 42.8716C286.042 40.181 280.062 37.1915 276.774 37.1915C274.143 37.1915 271.293 39.1845 270.197 40.181L269.3 38.6861C266.51 34.7998 259.016 28.163 251.363 32.7071Z" fill="white" stroke="white"/>
<path d="M96.8047 129.867V108.94H101.887L112.649 123.589L107.567 129.867H96.8047Z" fill="#00C46A" stroke="#00C46A"/>
<path d="M115.937 123.589L103.979 108.94L103.381 108.342H106.072L118.03 122.692H128.792V125.382H118.03L100.99 144.515V172.617H99.4951V142.721L115.937 123.589Z" fill="#69839A" stroke="#69839A"/>
<path d="M115.339 115.218L109.659 108.94H121.318V113.723L115.339 115.218Z" fill="#8F8A90" stroke="#595959"/>
<path d="M123.113 108.342V115.218L119.681 115.79L119.227 115.816V120.3L126.7 120.001V108.342H123.113Z" fill="#8F8A90"/>
<path d="M119.526 115.816L119.681 115.79M119.681 115.79L123.113 115.218V108.342H126.7V120.001L119.227 120.3V115.816L119.681 115.79Z" stroke="#595959"/>
<path d="M132.679 121.795V108.342H139.854V121.795H132.679Z" fill="#00C46A" stroke="#00C46A"/>
<path d="M118.927 143.021L107.267 149.597H103.979H103.381H102.783V144.814L110.556 135.846H118.927V143.021Z" fill="#8F8A90"/>
<path d="M103.381 149.597H103.979M103.979 149.597H107.267L118.927 143.021V135.846H110.556L102.783 144.814V149.597H103.979Z" stroke="#595959"/>
<path d="M106.67 151.989H102.783V157.669H106.67V151.989Z" fill="#8F8A90" stroke="#595959"/>
<path d="M106.371 159.164H102.783V164.545H106.371V159.164Z" fill="#8F8A90" stroke="#595959"/>
<path d="M106.67 166.937H102.783V172.318H106.67V166.937Z" fill="#8F8A90" stroke="#595959"/>
<path d="M108.463 150.195V171.72H110.855V151.989L124.307 145.113V142.124L108.463 150.195Z" fill="#FF4D1C" stroke="#FF4D1C"/>
<path d="M102.485 136.742L97.1035 141.824V136.742H102.485Z" fill="#00C46A" stroke="#00C46A"/>
<path d="M129.39 134.949H96.8047V132.258H127.896V108.342H130.885V134.949H129.39Z" fill="#FF4D1C" stroke="#DE2500" stroke-opacity="0.1"/>
<path d="M126.7 130.764H116.535L118.927 127.774H121.916V126.279H126.7V130.764Z" fill="#8F8A90" stroke="#595959"/>
<path d="M131.8 138.479C131.791 138.262 131.782 137.904 131.782 137.341C131.782 135.427 131.583 134.351 131.483 134.052L130.287 134.052C130.188 132.159 130.048 128.133 130.287 127.176C130.314 127.07 130.336 126.98 130.354 126.904L130.287 126.877C130.376 126.612 130.496 126.299 130.354 126.904L131.782 127.475L134.174 128.073L134.772 129.867L136.266 130.764L135.967 132.258L136.266 133.454L131.8 138.479C131.802 138.522 131.804 138.559 131.806 138.591C131.824 138.898 131.841 138.758 131.806 138.591C131.8 138.561 131.792 138.53 131.782 138.5L131.8 138.479Z" fill="#B7664F"/>
<path d="M131.483 134.052C131.583 134.351 131.782 135.427 131.782 137.341C131.782 139.254 131.882 138.799 131.782 138.5L136.266 133.454L135.967 132.258L136.266 130.764L134.772 129.867L134.174 128.073L131.782 127.475L130.287 126.877C130.387 126.578 130.526 126.22 130.287 127.176C130.048 128.133 130.188 132.159 130.287 134.052L131.483 134.052Z" stroke="black" stroke-opacity="0.3"/>
<path d="M137.163 130.764L136.864 133.155H136.565V130.764L135.07 129.568L134.472 127.774L133.277 127.475L130.287 126.579V123.888C130.287 123.29 134.173 123.29 135.369 123.29C136.326 123.29 136.764 123.689 136.864 123.888C137.163 124.287 137.94 125.383 138.658 126.579C139.375 127.774 138.558 128.87 138.06 129.269L137.163 130.764Z" fill="#070606" stroke="black"/>
<path d="M126.101 138.237C123.231 141.107 123.51 145.013 124.009 146.608L131.542 138.5V136.5L131.042 134.5C130.743 134.6 128.971 135.367 126.101 138.237Z" fill="#FFE1D8" stroke="#FFE1D8"/>
<path d="M113.546 207.893L111.752 202.512V183.08V173.214V160.957L139.554 130.165H289.628C290.226 130.464 291.482 131.54 291.721 133.454C291.96 135.367 291.821 174.111 291.721 193.244L293.515 195.038V204.903L289.329 208.491L286.34 208.192C287.336 204.903 288.552 197.669 285.443 195.038C284.048 192.746 280.062 188.162 275.279 188.162C269.299 188.162 262.424 187.863 259.733 190.554C257.042 193.244 254.053 196.533 253.754 201.615C253.628 203.749 253.607 205.317 253.63 206.398C253.65 207.376 253.707 207.955 253.754 208.192H169.151C169.252 207.661 169.35 207.055 169.438 206.398C170.038 201.873 170.1 194.915 166.759 193.244C165.464 191.65 162.335 188.461 160.182 188.461C157.492 188.461 146.43 186.069 140.75 190.554C136.206 194.141 135.867 203.807 136.266 208.192L131.184 208.125L113.546 207.893Z" fill="white"/>
<path d="M131.184 208.125L136.266 208.192C135.867 203.807 136.206 194.141 140.75 190.554C146.43 186.069 157.492 188.461 160.182 188.461C162.335 188.461 165.464 191.65 166.759 193.244C170.1 194.915 170.038 201.873 169.438 206.398C169.35 207.055 169.252 207.661 169.151 208.192H253.754C253.707 207.955 253.65 207.376 253.63 206.398C253.607 205.317 253.628 203.749 253.754 201.615C254.053 196.533 257.042 193.244 259.733 190.554C262.424 187.863 269.299 188.162 275.279 188.162C280.062 188.162 284.048 192.746 285.443 195.038C288.552 197.669 287.336 204.903 286.34 208.192L289.329 208.491L293.515 204.903V195.038L291.721 193.244C291.821 174.111 291.96 135.367 291.721 133.454C291.482 131.54 290.226 130.464 289.628 130.165H139.554L111.752 160.957V173.214V183.08V202.512L113.546 207.893L131.184 208.125ZM169.438 206.398H174.532M253.63 206.398H174.532M174.532 206.398C174.831 202.213 174.113 193.065 168.852 189.956C162.275 186.069 155.399 183.08 148.822 184.276C144.338 185.571 134.711 189.896 132.081 196.832C129.45 203.767 130.387 207.25 131.184 208.125" stroke="#D9D9D9"/>
<path d="M115.938 173.215H112.351V183.08H115.938V173.215Z" fill="black" stroke="black"/>
<path d="M115.938 207.5V163.349L142.843 133.454L155.1 133.454H181.408M292.02 133.454H181.408M181.408 133.454V170.225L179.315 175.307L181.408 178.596V202.213L182.903 204.006V207.893" stroke="#D9D9D9"/>
<path d="M131.782 176.204H292.02" stroke="#D9D9D9"/>
<path d="M245.981 164.545V171.421L244.785 175.307L245.981 178.895V201.017L248.373 204.306V207.893" stroke="#D9D9D9"/>
<path d="M173.542 197L179.016 190.554H256.445" stroke="#D9D9D9"/>
<path d="M250.166 205.8C250.465 201.515 252.378 192.288 257.64 189.657L263.32 186.369C265.612 185.97 270.734 185.233 272.886 185.472C275.577 185.771 280.659 186.369 285.442 192.647C289.269 197.669 290.425 204.505 290.524 207.295" stroke="#D9D9D9"/>
<path d="M176.625 189.358H172.439V179.194H176.625V189.358Z" fill="black" stroke="black"/>
<path d="M172.738 171.421H165.862V168.73H172.738V171.421Z" fill="#595959" stroke="#595959"/>
<path d="M186.49 166.339V172.916H189.181V166.339H186.49Z" fill="#595959" stroke="#595959"/>
<path d="M171.841 164.545H121.318L120.421 163.648C120.421 162.692 121.019 161.456 121.318 160.958L145.234 135.248H172.14C173.096 135.248 174.133 137.241 174.531 138.237V162.452C174.531 163.648 172.737 164.346 171.841 164.545Z" fill="black" stroke="black"/>
<path d="M188.881 164.545C186.729 164.306 185.692 163.05 185.593 162.452L185.89 138.377L185.892 137.639C185.892 136.204 186.49 135.646 186.789 135.547C219.275 135.447 284.665 135.307 286.34 135.547C288.014 135.786 288.133 136.643 288.133 137.041V163.05C288.133 164.485 286.539 164.645 285.742 164.545C254.352 164.645 191.034 164.784 188.881 164.545Z" fill="black"/>
<path d="M185.892 138.237L185.89 138.377M185.89 138.377L185.593 162.452C185.692 163.05 186.729 164.306 188.881 164.545C191.034 164.784 254.352 164.645 285.742 164.545C286.539 164.645 288.133 164.485 288.133 163.05C288.133 161.615 288.133 145.113 288.133 137.041C288.133 136.643 288.014 135.786 286.34 135.547C284.665 135.307 219.275 135.447 186.789 135.547C186.49 135.646 185.892 136.204 185.892 137.639L185.89 138.377Z" stroke="black"/>
<path d="M141.349 220.449C137.761 219.014 136.865 211.281 136.267 208.79C136.267 205.8 136.745 198.805 138.658 194.739C140.572 190.673 146.431 188.66 148.524 188.461C150.517 188.561 155.459 188.76 159.286 188.76C164.069 188.76 166.461 195.636 167.955 196.533C169.151 197.25 169.65 204.206 169.749 207.594C169.849 208.192 169.988 209.926 169.749 212.078C169.51 214.231 165.863 217.559 164.069 218.954C162.156 221.585 155.101 223.04 151.812 223.438C150.218 222.94 144.936 221.884 141.349 220.449Z" fill="#242424" stroke="black"/>
<path d="M259.434 219.253C255.129 217.101 253.771 210.783 253.63 207.893H254.053C254.153 205.701 254.471 201.017 254.95 199.821C255.548 198.327 258.836 192.348 262.125 190.255C265.413 188.162 272.887 188.76 276.474 188.461C280.062 188.162 282.154 193.543 285.144 195.935C287.536 197.848 286.938 203.907 286.34 206.697C286.439 207.893 286.519 210.942 286.041 213.573C285.562 216.204 282.453 219.054 280.959 220.15C279.464 221.047 275.219 223.02 270.196 223.737C265.174 224.455 260.929 221.047 259.434 219.253Z" fill="#242424" stroke="black"/>
<path d="M125.205 135.846V140.33L121.772 142.333L121.318 142.423V135.846H125.205Z" fill="#00C46A"/>
<path d="M121.617 142.423L121.772 142.333M121.772 142.333L125.205 140.33V135.846H121.318V142.423L121.772 142.333Z" stroke="#00C46A"/>
<path d="M135.669 132.258L134.772 133.454L133.277 134.351L131.484 134.052L131.185 133.753V133.155" stroke="black" stroke-opacity="0.3"/>
<g filter="url(#filter0_dd_181_2570)">
<ellipse cx="270.196" cy="205.8" rx="11.9581" ry="11.9581" fill="#F2F2F2"/>
<path d="M270.196 194.342C276.524 194.342 281.654 199.472 281.654 205.8C281.654 212.128 276.524 217.258 270.196 217.258C263.868 217.258 258.738 212.128 258.738 205.8C258.738 199.472 263.868 194.342 270.196 194.342Z" stroke="url(#paint0_linear_181_2570)"/>
</g>
<g filter="url(#filter1_dd_181_2570)">
<ellipse cx="153.007" cy="206.996" rx="11.9581" ry="11.9581" fill="#F2F2F2"/>
<path d="M153.007 195.538C159.335 195.538 164.465 200.668 164.465 206.996C164.465 213.324 159.335 218.454 153.007 218.454C146.679 218.454 141.549 213.324 141.549 206.996C141.549 200.668 146.679 195.538 153.007 195.538Z" stroke="url(#paint1_linear_181_2570)"/>
</g>
<rect x="190.1" y="178.489" width="10" height="10" rx="5" fill="#FF4D1C"/>
<g filter="url(#filter2_i_181_2570)">
<path d="M194.975 186.556C194.662 186.556 194.475 186.364 194.475 186.032V181.704H193.186C192.912 181.704 192.725 181.54 192.725 181.278C192.725 181.017 192.908 180.853 193.186 180.853H196.768C197.045 180.853 197.229 181.017 197.229 181.278C197.229 181.54 197.041 181.704 196.768 181.704H195.479V186.032C195.479 186.364 195.291 186.556 194.975 186.556Z" fill="white"/>
</g>
<g filter="url(#filter3_di_181_2570)">
<path d="M207.662 187.589C207.193 187.589 206.912 187.302 206.912 186.804V180.312H204.979C204.568 180.312 204.287 180.065 204.287 179.673C204.287 179.28 204.562 179.034 204.979 179.034H210.352C210.768 179.034 211.043 179.28 211.043 179.673C211.043 180.065 210.762 180.312 210.352 180.312H208.418V186.804C208.418 187.302 208.137 187.589 207.662 187.589ZM212.064 187.606C211.625 187.606 211.338 187.319 211.338 186.839V181.894C211.338 181.437 211.619 181.155 212.035 181.155C212.439 181.155 212.727 181.437 212.727 181.894V182.368H212.756C212.926 181.642 213.465 181.173 214.086 181.173C214.314 181.173 214.49 181.231 214.602 181.331C214.736 181.442 214.807 181.618 214.807 181.858C214.807 182.087 214.736 182.257 214.59 182.374C214.449 182.497 214.232 182.562 213.945 182.567C213.113 182.573 212.797 183.095 212.797 183.851V186.839C212.797 187.319 212.504 187.606 212.064 187.606ZM218.477 187.612C216.654 187.612 215.471 186.399 215.471 184.384C215.471 182.38 216.666 181.149 218.477 181.149C220.287 181.149 221.482 182.374 221.482 184.384C221.482 186.399 220.299 187.612 218.477 187.612ZM218.477 186.458C219.402 186.458 220 185.708 220 184.384C220 183.065 219.402 182.31 218.477 182.31C217.557 182.31 216.953 183.065 216.953 184.384C216.953 185.708 217.551 186.458 218.477 186.458ZM225.316 187.612C224.004 187.612 223.084 187.108 222.785 186.364C222.744 186.259 222.727 186.165 222.727 186.077C222.727 185.726 222.984 185.503 223.336 185.503C223.576 185.503 223.781 185.614 223.969 185.86C224.297 186.335 224.672 186.546 225.369 186.546C226.049 186.546 226.5 186.259 226.5 185.79C226.5 185.415 226.266 185.21 225.627 185.063L224.619 184.835C223.406 184.56 222.809 183.962 222.809 183.06C222.809 181.905 223.805 181.149 225.34 181.149C226.535 181.149 227.461 181.735 227.654 182.45C227.672 182.526 227.684 182.597 227.684 182.667C227.684 182.972 227.49 183.188 227.121 183.188C226.91 183.188 226.699 183.112 226.564 182.919C226.277 182.491 225.92 182.222 225.305 182.222C224.666 182.222 224.227 182.532 224.227 182.978C224.227 183.341 224.496 183.587 225.141 183.733L226.131 183.95C227.443 184.249 227.965 184.724 227.965 185.644C227.965 186.833 226.898 187.612 225.316 187.612ZM230.158 187.606C229.73 187.606 229.426 187.331 229.426 186.839V179.685C229.426 179.192 229.73 178.917 230.158 178.917C230.586 178.917 230.885 179.192 230.885 179.685V183.845H230.902L233.34 181.437C233.527 181.237 233.686 181.155 233.908 181.155C234.271 181.155 234.547 181.431 234.547 181.782C234.547 181.999 234.482 182.134 234.283 182.321L232.514 183.997L234.459 186.429C234.611 186.64 234.658 186.769 234.658 186.956C234.658 187.337 234.371 187.606 233.967 187.606C233.68 187.606 233.51 187.507 233.299 187.202L231.436 184.841L230.885 185.356V186.839C230.885 187.331 230.586 187.606 230.158 187.606ZM236.869 180.405C236.418 180.405 236.061 180.054 236.061 179.614C236.061 179.169 236.418 178.823 236.869 178.823C237.326 178.823 237.684 179.169 237.684 179.614C237.684 180.054 237.326 180.405 236.869 180.405ZM236.869 187.606C236.424 187.606 236.143 187.313 236.143 186.839V181.923C236.143 181.454 236.424 181.155 236.869 181.155C237.314 181.155 237.602 181.454 237.602 181.929V186.839C237.602 187.313 237.314 187.606 236.869 187.606Z" fill="black"/>
</g>
<defs>
<filter id="filter0_dd_181_2570" x="254.238" y="187.842" width="31.916" height="35.916" filterUnits="userSpaceOnUse" color-interpolation-filters="sRGB">
<feFlood flood-opacity="0" result="BackgroundImageFix"/>
<feColorMatrix in="SourceAlpha" type="matrix" values="0 0 0 0 0 0 0 0 0 0 0 0 0 0 0 0 0 0 127 0" result="hardAlpha"/>
<feOffset dy="2"/>
<feGaussianBlur stdDeviation="2"/>
<feComposite in2="hardAlpha" operator="out"/>
<feColorMatrix type="matrix" values="0 0 0 0 0.94902 0 0 0 0 0.94902 0 0 0 0 0.94902 0 0 0 0.15 0"/>
<feBlend mode="normal" in2="BackgroundImageFix" result="effect1_dropShadow_181_2570"/>
<feColorMatrix in="SourceAlpha" type="matrix" values="0 0 0 0 0 0 0 0 0 0 0 0 0 0 0 0 0 0 127 0" result="hardAlpha"/>
<feOffset dy="-2"/>
<feGaussianBlur stdDeviation="2"/>
<feComposite in2="hardAlpha" operator="out"/>
<feColorMatrix type="matrix" values="0 0 0 0 0 0 0 0 0 0 0 0 0 0 0 0 0 0 0.15 0"/>
<feBlend mode="normal" in2="effect1_dropShadow_181_2570" result="effect2_dropShadow_181_2570"/>
<feBlend mode="normal" in="SourceGraphic" in2="effect2_dropShadow_181_2570" result="shape"/>
</filter>
<filter id="filter1_dd_181_2570" x="137.049" y="189.038" width="31.916" height="35.916" filterUnits="userSpaceOnUse" color-interpolation-filters="sRGB">
<feFlood flood-opacity="0" result="BackgroundImageFix"/>
<feColorMatrix in="SourceAlpha" type="matrix" values="0 0 0 0 0 0 0 0 0 0 0 0 0 0 0 0 0 0 127 0" result="hardAlpha"/>
<feOffset dy="2"/>
<feGaussianBlur stdDeviation="2"/>
<feComposite in2="hardAlpha" operator="out"/>
<feColorMatrix type="matrix" values="0 0 0 0 0.94902 0 0 0 0 0.94902 0 0 0 0 0.94902 0 0 0 0.15 0"/>
<feBlend mode="normal" in2="BackgroundImageFix" result="effect1_dropShadow_181_2570"/>
<feColorMatrix in="SourceAlpha" type="matrix" values="0 0 0 0 0 0 0 0 0 0 0 0 0 0 0 0 0 0 127 0" result="hardAlpha"/>
<feOffset dy="-2"/>
<feGaussianBlur stdDeviation="2"/>
<feComposite in2="hardAlpha" operator="out"/>
<feColorMatrix type="matrix" values="0 0 0 0 0 0 0 0 0 0 0 0 0 0 0 0 0 0 0.15 0"/>
<feBlend mode="normal" in2="effect1_dropShadow_181_2570" result="effect2_dropShadow_181_2570"/>
<feBlend mode="normal" in="SourceGraphic" in2="effect2_dropShadow_181_2570" result="shape"/>
</filter>
<filter id="filter2_i_181_2570" x="192.725" y="180.853" width="4.50391" height="7.70312" filterUnits="userSpaceOnUse" color-interpolation-filters="sRGB">
<feFlood flood-opacity="0" result="BackgroundImageFix"/>
<feBlend mode="normal" in="SourceGraphic" in2="BackgroundImageFix" result="shape"/>
<feColorMatrix in="SourceAlpha" type="matrix" values="0 0 0 0 0 0 0 0 0 0 0 0 0 0 0 0 0 0 127 0" result="hardAlpha"/>
<feOffset dy="2"/>
<feGaussianBlur stdDeviation="1"/>
<feComposite in2="hardAlpha" operator="arithmetic" k2="-1" k3="1"/>
<feColorMatrix type="matrix" values="0 0 0 0 0 0 0 0 0 0 0 0 0 0 0 0 0 0 0.12 0"/>
<feBlend mode="normal" in2="shape" result="effect1_innerShadow_181_2570"/>
</filter>
<filter id="filter3_di_181_2570" x="196.287" y="174.823" width="49.3965" height="24.7891" filterUnits="userSpaceOnUse" color-interpolation-filters="sRGB">
<feFlood flood-opacity="0" result="BackgroundImageFix"/>
<feColorMatrix in="SourceAlpha" type="matrix" values="0 0 0 0 0 0 0 0 0 0 0 0 0 0 0 0 0 0 127 0" result="hardAlpha"/>
<feOffset dy="4"/>
<feGaussianBlur stdDeviation="4"/>
<feComposite in2="hardAlpha" operator="out"/>
<feColorMatrix type="matrix" values="0 0 0 0 0 0 0 0 0 0 0 0 0 0 0 0 0 0 0.15 0"/>
<feBlend mode="normal" in2="BackgroundImageFix" result="effect1_dropShadow_181_2570"/>
<feBlend mode="normal" in="SourceGraphic" in2="effect1_dropShadow_181_2570" result="shape"/>
<feColorMatrix in="SourceAlpha" type="matrix" values="0 0 0 0 0 0 0 0 0 0 0 0 0 0 0 0 0 0 127 0" result="hardAlpha"/>
<feOffset dy="2"/>
<feGaussianBlur stdDeviation="1"/>
<feComposite in2="hardAlpha" operator="arithmetic" k2="-1" k3="1"/>
<feColorMatrix type="matrix" values="0 0 0 0 0.85098 0 0 0 0 0.85098 0 0 0 0 0.85098 0 0 0 0.25 0"/>
<feBlend mode="normal" in2="shape" result="effect2_innerShadow_181_2570"/>
</filter>
<linearGradient id="paint0_linear_181_2570" x1="274.382" y1="194.44" x2="264.516" y2="215.965" gradientUnits="userSpaceOnUse">
<stop stop-color="white"/>
<stop offset="0.222056" stop-color="#CCCCCC"/>
<stop offset="0.933685" stop-color="#B3B3B3"/>
<stop offset="0.989935" stop-color="#999999"/>
</linearGradient>
<linearGradient id="paint1_linear_181_2570" x1="157.192" y1="195.636" x2="147.327" y2="217.16" gradientUnits="userSpaceOnUse">
<stop stop-color="white"/>
<stop offset="0.222056" stop-color="#CCCCCC"/>
<stop offset="0.933685" stop-color="#B3B3B3"/>
<stop offset="0.989935" stop-color="#999999"/>
</linearGradient>
</defs>
</svg>
